# File created by Blade
# Date/Time:  Tue Apr 07 20:57:09 2015
# Frame Rate: 120.000 fps
#------------------------------------------------------
:FULLY-SPECIFIED
:DEGREES
821
root 39.463674 31.034462 12.065907 379.439525 -66.865817 -715.840795
Spine -17.332702 -24.722798 -7.446179
Head 19.291840 -10.577680 9.405048
LeftShoulder -21.248268 20.844831 35.782091
LeftArm 112.689881 -70.766979 -85.762127
LeftForeArm 9.636814 -0.000000 4.969972
LeftHand 9.201390 0.000000 22.337881
LeftHandThumb1 -26.253704 0.000000 33.147579
RightShoulder -22.008549 22.986564 -52.548971
RightArm 23.058184 35.514004 16.120746
RightForeArm -33.848089 -0.000000 18.512523
RightHand -11.044135 0.000000 16.203140
RightHandThumb1 -24.326973 -0.000000 -32.862282
LeftUpLeg -3.365919 6.870254 -1.910691
LeftLeg -5.430813 -0.000000 0.000000
LeftFoot -15.460572 9.839252 -27.545058
LeftToeBase -8.065972 -0.000000 0.000000
RightUpLeg -54.534327 -16.481049 8.756148
RightLeg 16.821922 -0.000000 -0.000000
RightFoot 12.704390 -11.599000 2.740634
RightToeBase -3.017652 -0.000000 0.000000
822
root 39.463200 31.041100 12.000682 379.834564 -66.588366 -716.330799
Spine -17.262820 -24.826968 -7.742022
Head 19.400027 -10.748251 9.534060
LeftShoulder -20.987428 21.103437 35.702573
LeftArm 111.548685 -70.414389 -85.030014
LeftForeArm 9.650562 -0.000000 4.907024
LeftHand 9.201102 0.000000 22.186824
LeftHandThumb1 -26.253704 0.000000 33.147579
RightShoulder -21.901088 22.808743 -52.314640
RightArm 23.099310 35.527454 16.260228
RightForeArm -33.962966 -0.000000 18.861777
RightHand -10.496859 -0.000000 14.799426
RightHandThumb1 -24.326973 -0.000000 -32.862282
LeftUpLeg -3.339473 7.125563 -1.575638
LeftLeg -5.519883 -0.000000 0.000000
LeftFoot -15.246166 9.459600 -27.732066
LeftToeBase -8.523713 -0.000000 0.000000
RightUpLeg -54.420420 -16.166107 8.675449
RightLeg 17.172146 -0.000000 -0.000000
RightFoot 11.998355 -9.864937 3.825620
RightToeBase -3.881426 -0.000000 0.000000
823
root 39.459908 31.050652 11.937637 380.175076 -66.326709 -716.745442
Spine -17.223002 -24.953020 -8.030576
Head 19.525886 -10.857696 9.639094
LeftShoulder -20.742865 21.471007 35.577601
LeftArm 110.091558 -70.085643 -83.904886
LeftForeArm 9.657849 -0.000000 4.799885
LeftHand 9.576575 -0.000000 21.667790
LeftHandThumb1 -26.253704 0.000000 33.147579
RightShoulder -21.750015 22.599435 -52.056550
RightArm 23.211059 35.489946 16.434039
RightForeArm -33.967034 -0.000000 19.127998
RightHand -9.914522 -0.000000 13.624923
RightHandThumb1 -24.326973 -0.000000 -32.862282
LeftUpLeg -3.317845 7.320678 -1.261127
LeftLeg -5.614148 -0.000000 0.000000
LeftFoot -15.042967 9.155729 -27.814886
LeftToeBase -8.458840 -0.000000 0.000000
RightUpLeg -54.314338 -15.845628 8.583547
RightLeg 17.456756 -0.000000 -0.000000
RightFoot 11.553662 -8.143255 4.749259
RightToeBase -4.348836 -0.000000 0.000000
824
root 39.455983 31.065755 11.874957 380.526339 -66.101656 -717.148346
Spine -17.202655 -25.056605 -8.310922
Head 19.669136 -11.008837 9.720854
LeftShoulder -20.487256 21.883323 35.433091
LeftArm 108.283889 -69.781991 -82.341343
LeftForeArm 9.575864 -0.000000 4.608876
LeftHand 9.584225 -0.000000 21.393419
LeftHandThumb1 -26.253704 0.000000 33.147579
RightShoulder -21.563361 22.354800 -51.787512
RightArm 23.282190 35.408500 16.612710
RightForeArm -34.011352 -0.000000 19.456125
RightHand -9.377981 -0.000000 12.558053
RightHandThumb1 -24.326973 -0.000000 -32.862282
LeftUpLeg -3.337459 7.448184 -0.957224
LeftLeg -5.674265 -0.000000 0.000000
LeftFoot -14.857602 9.039626 -27.672075
LeftToeBase -8.292673 -0.000000 0.000000
RightUpLeg -54.223792 -15.462521 8.468539
RightLeg 17.712677 -0.000000 -0.000000
RightFoot 11.235909 -6.669078 6.337273
RightToeBase -2.672462 -0.000000 0.000000
825
root 39.446664 31.083152 11.811515 380.889579 -65.894562 -717.575240
Spine -17.166820 -25.130851 -8.596320
Head 19.772510 -11.123906 9.852710
LeftShoulder -20.232807 22.266456 35.350211
LeftArm 106.093782 -69.396280 -80.379699
LeftForeArm 9.474027 -0.000000 4.380301
LeftHand 9.621296 -0.000000 21.097425
LeftHandThumb1 -26.253704 0.000000 33.147579
RightShoulder -21.207215 21.840937 -51.352842
RightArm 23.206933 35.482777 16.614648
RightForeArm -33.864656 -0.000000 19.855202
RightHand -8.814691 -0.000000 11.854555
RightHandThumb1 -24.326973 -0.000000 -32.862282
LeftUpLeg -3.355885 7.498980 -0.641600
LeftLeg -5.720599 -0.000000 0.000000
LeftFoot -14.748446 9.079293 -27.593026
LeftToeBase -8.078483 -0.000000 0.000000
RightUpLeg -54.101277 -15.064009 8.438980
RightLeg 17.841950 -0.000000 -0.000000
RightFoot 11.502577 -5.437884 7.079956
RightToeBase -3.142990 -0.000000 0.000000
826
root 39.434487 31.103896 11.748938 381.291336 -65.674572 -718.033861
Spine -17.143003 -25.204749 -8.826582
Head 19.861618 -11.240177 9.951304
LeftShoulder -20.009062 22.850096 35.148020
LeftArm 104.605245 -68.993126 -79.026807
LeftForeArm 9.395332 0.000000 4.126405
LeftHand 9.620412 -0.000000 20.535877
LeftHandThumb1 -26.253704 0.000000 33.147579
RightShoulder -20.980122 21.604315 -51.149158
RightArm 23.114948 35.226186 16.769885
RightForeArm -33.632843 0.000000 20.282110
RightHand -8.307915 -0.000000 11.143250
RightHandThumb1 -24.326973 -0.000000 -32.862282
LeftUpLeg -3.413639 7.550245 -0.310847
LeftLeg -5.714067 -0.000000 0.000000
LeftFoot -14.549224 8.948591 -27.994955
LeftToeBase -8.498871 -0.000000 0.000000
RightUpLeg -53.930960 -14.624711 8.400058
RightLeg 17.823868 -0.000000 -0.000000
RightFoot 11.821818 -4.799456 7.847845
RightToeBase -3.825976 -0.000000 0.000000
827
root 39.420106 31.128661 11.687889 381.703896 -65.420740 -718.479206
Spine -17.126596 -25.300253 -9.022413
Head 19.909136 -11.360640 10.051718
LeftShoulder -19.765071 23.335887 34.983221
LeftArm 102.938476 -68.527367 -77.522245
LeftForeArm 9.310089 -0.000000 3.923008
LeftHand 9.493530 0.000000 19.778863
LeftHandThumb1 -26.253704 0.000000 33.147579
RightShoulder -20.772614 21.375303 -50.989663
RightArm 23.023880 35.014240 17.016778
RightForeArm -33.278249 -0.000000 20.729234
RightHand -7.911808 -0.000000 10.466191
RightHandThumb1 -24.326973 -0.000000 -32.862282
LeftUpLeg -3.506164 7.523304 0.022327
LeftLeg -5.678407 -0.000000 0.000000
LeftFoot -14.392354 8.909057 -28.355750
LeftToeBase -8.752573 -0.000000 0.000000
RightUpLeg -53.777408 -14.256079 8.441869
RightLeg 17.737215 -0.000000 -0.000000
RightFoot 12.122696 -4.491961 8.587354
RightToeBase -3.419651 -0.000000 0.000000
828
root 39.401370 31.154194 11.630115 382.105088 -65.167796 -718.949090
Spine -17.052562 -25.369901 -9.200349
Head 19.868335 -11.471289 10.149037
LeftShoulder -19.509182 23.855785 34.785519
LeftArm 101.489932 -68.074743 -76.216694
LeftForeArm 9.104602 -0.000000 3.754036
LeftHand 9.325684 -0.000000 19.077145
LeftHandThumb1 -26.253704 0.000000 33.147579
RightShoulder -20.538597 21.124618 -50.792823
RightArm 22.906862 34.864555 17.181249
RightForeArm -32.598179 -0.000000 21.104551
RightHand -7.340432 -0.000000 9.979494
RightHandThumb1 -24.326973 -0.000000 -32.862282
LeftUpLeg -3.569690 7.582893 0.359149
LeftLeg -5.615371 -0.000000 0.000000
LeftFoot -14.271083 8.898815 -28.495604
LeftToeBase -8.605274 -0.000000 0.000000
RightUpLeg -53.620107 -13.988267 8.624278
RightLeg 17.623272 -0.000000 -0.000000
RightFoot 12.358474 -4.323473 8.904155
RightToeBase -2.985403 -0.000000 0.000000
829
root 39.383099 31.182487 11.576896 382.452743 -64.913085 -719.334327
Spine -16.986056 -25.435219 -9.381906
Head 19.785159 -11.594252 10.246033
LeftShoulder -19.202421 24.245718 34.637369
LeftArm 99.196734 -67.630060 -74.045343
LeftForeArm 8.738736 -0.000000 3.582470
LeftHand 9.185153 -0.000000 18.647980
LeftHandThumb1 -26.253704 0.000000 33.147579
RightShoulder -20.284835 20.901028 -50.609180
RightArm 22.755898 34.785462 17.330618
RightForeArm -31.706494 0.000000 21.393627
RightHand -6.525782 0.000000 9.293939
RightHandThumb1 -24.326973 -0.000000 -32.862282
LeftUpLeg -3.678077 7.750037 0.635189
LeftLeg -5.526758 -0.000000 0.000000
LeftFoot -14.195056 8.997997 -28.089211
LeftToeBase -7.659849 -0.000000 0.000000
RightUpLeg -53.519756 -13.808011 8.863872
RightLeg 17.536959 -0.000000 -0.000000
RightFoot 12.611382 -4.150036 8.979571
RightToeBase -2.953045 -0.000000 0.000000
830
root 39.364160 31.211714 11.524206 382.768781 -64.654471 -719.662389
Spine -16.900746 -25.525782 -9.561436
Head 19.571317 -11.711483 10.373619
LeftShoulder -18.872969 24.500143 34.562933
LeftArm 96.044587 -67.176917 -71.037073
LeftForeArm 8.079145 -0.000000 3.465881
LeftHand 9.024776 -0.000000 18.155113
LeftHandThumb1 -26.253704 0.000000 33.147579
RightShoulder -20.074112 20.767495 -50.446262
RightArm 22.622635 34.568096 17.448741
RightForeArm -31.022950 -0.000000 21.574305
RightHand -5.887228 -0.000000 8.481149
RightHandThumb1 -24.326973 -0.000000 -32.862282
LeftUpLeg -3.804474 7.824386 0.900029
LeftLeg -5.446450 -0.000000 0.000000
LeftFoot -14.079208 9.001586 -28.167173
LeftToeBase -6.979846 -0.000000 0.000000
RightUpLeg -53.450350 -13.649814 9.110662
RightLeg 17.452906 -0.000000 -0.000000
RightFoot 12.996086 -3.980596 8.750233
RightToeBase -2.833324 -0.000000 0.000000
